<?xml version="1.0" encoding="UTF-8"?>
<svg id="Layer_1" data-name="Layer 1" xmlns="http://www.w3.org/2000/svg" viewBox="0 0 1080 1080">
  <defs>
    <style>
      .cls-1 {
        fill: #fff;
        stroke-width: 0px;
      }
    </style>
  </defs>
  <path class="cls-1" d="M556.57,179.13c-206.67-5.49-367.38,158.08-371.78,351.57-4.67,205.1,157.79,365.25,351.19,370.17,207.71,5.28,372.15-161.99,371.18-360.92.56-196.27-156.61-355.67-350.59-360.82ZM714.89,702.06c-2.1,9.27-10.65,16.37-20.55,16.71-3.56.12-7.09-.76-10.23-2.56-26.44-15.18-54.23-27.26-83.27-36.51-29.94-9.53-60.54-15.74-91.83-18.66-11.8-1.1-23.6-1.82-35.44-1.98-36.37-.49-72.22,3.6-107.6,12.03-12.17,2.9-23.46-4.08-26.29-16.01-2.65-11.21,4.99-22.85,16.81-25.56,28.38-6.51,57.03-11.11,86.18-12.39,8.29-.37,16.58-.75,24.89-.76,49.96.19,98.77,7.67,146.42,22.8,31.34,9.95,61.2,23.21,89.86,39.25,8.8,4.93,13.14,14.35,11.04,23.63ZM762.68,605.9c-2.3,11.61-12.53,20.65-24.97,21.86-6.56.64-12.41-1.73-18.06-4.76-47.09-25.28-96.95-42.77-149.4-52.91-23.14-4.47-46.46-7.53-70.02-8.81-13.16-.72-26.32-1.41-39.49-1.13-31.22.67-62.23,3.54-92.94,9.48-6.58,1.27-13.03,3.47-19.8,3.56-14.14.2-26.37-10.25-28.13-23.83-1.81-13.95,6.77-27.12,20.55-30.62,14.03-3.56,28.32-5.95,42.64-7.98,28.05-3.99,56.23-6.34,74.5-6.07,69.61.09,127.81,8.78,184.71,26.3,36.83,11.34,72.21,26.04,106.05,44.43,11.56,6.28,16.88,17.73,14.35,30.49ZM765.84,520.57c-44.8-22.98-91.53-40.79-140.41-52.93-34.41-8.55-69.28-14.3-104.64-17.15-19.44-1.57-38.9-2.5-58.4-2.29-40.89.44-81.45,4.41-121.52,12.67-21,4.33-38.26-9.15-41.62-26.83-3.7-19.5,8.6-36.58,28.85-40.52,31.01-6.02,62.24-10.32,93.8-12.25,15.25-.93,30.51-1.51,48.26-1.56,66.41.19,133.93,9.79,200.03,29.17,38.2,11.2,75.22,25.44,110.96,42.99,8.02,3.94,16.35,7.3,23.45,12.9,14.25,11.23,15.88,35.25,3.29,48.42-11.93,12.48-26.77,15.21-42.06,7.37Z"/>
</svg>