<?xml version="1.0" encoding="UTF-8"?>
<svg id="Layer_1" data-name="Layer 1" xmlns="http://www.w3.org/2000/svg" viewBox="0 0 1080 1080">
  <defs>
    <style>
      .cls-1 {
        fill: #fff;
        stroke-width: 0px;
      }
    </style>
  </defs>
  <path class="cls-1" d="M907.95,382.6c-.04-7.21-.13-14.43-.32-21.64-.42-15.71-1.35-31.55-4.14-47.09-2.83-15.77-7.46-30.45-14.76-44.78-7.17-14.08-16.53-26.96-27.7-38.12-11.17-11.17-24.05-20.53-38.13-27.7-14.32-7.29-29-11.92-44.76-14.75-15.54-2.79-31.39-3.72-47.1-4.14-7.21-.19-14.42-.28-21.64-.32-8.56-.05-17.13-.05-25.69-.05h-268.43c-8.56,0-17.13,0-25.69.05-7.21.04-14.43.13-21.64.32-15.71.43-31.57,1.35-47.1,4.14-15.76,2.83-30.44,7.46-44.76,14.75-14.08,7.17-26.96,16.53-38.13,27.7-11.17,11.17-20.53,24.05-27.7,38.12-7.3,14.33-11.92,29.01-14.76,44.78-2.79,15.53-3.72,31.38-4.14,47.09-.19,7.21-.28,14.42-.32,21.64-.05,8.56-.05,17.13-.05,25.69v268.43c0,8.56,0,17.13.05,25.69.04,7.21.13,14.43.32,21.64.42,15.71,1.35,31.55,4.14,47.09,2.83,15.77,7.46,30.45,14.76,44.78,7.17,14.08,16.53,26.96,27.7,38.12,11.17,11.17,24.05,20.53,38.13,27.7,14.32,7.29,29,11.92,44.76,14.75,15.54,2.79,31.39,3.72,47.1,4.14,7.21.19,14.42.28,21.64.32,8.56.05,17.13.05,25.69.05h268.43c8.56,0,17.13,0,25.69-.05,7.21-.04,14.43-.13,21.64-.32,15.71-.42,31.57-1.35,47.1-4.14,15.76-2.83,30.44-7.46,44.76-14.75,14.08-7.17,26.96-16.53,38.13-27.7,11.17-11.17,20.53-24.05,27.7-38.12,7.3-14.33,11.92-29.01,14.76-44.78,2.79-15.53,3.72-31.38,4.14-47.09.19-7.21.28-14.42.32-21.64.05-8.56.05-17.13.05-25.69v-268.43c0-8.56,0-17.13-.05-25.69ZM604.42,659.17c-1.71,20.09-4.95,46.87-9.19,74.15-3.01,19.41-5.46,29.89-7.69,37.4-3.62,12.16-17.13,22.8-38.26,22.8s-34.65-10.64-38.26-22.8c-2.23-7.5-4.68-17.98-7.7-37.4-4.24-27.28-7.48-54.06-9.19-74.15-1.8-21.08-2.72-34.26-1.07-49.58.86-7.91,3.57-13.46,8.7-18.87,9.83-10.37,27.11-17.03,47.51-17.03s37.68,6.65,47.51,17.03c5.13,5.42,7.85,10.97,8.7,18.87,1.66,15.31.72,28.5-1.07,49.58ZM463.83,608.23c2.06,1.93,3.16,4.68,3,7.49-.48,8.58-.31,16.91.27,26.33.15,2.5-2.65,4.11-4.73,2.7-41.25-28.18-68.21-75.8-67.52-129.57,1.05-81.74,66.6-149.09,148.32-152.26,87.93-3.41,160.55,67.11,160.55,154.27,0,52.93-26.79,99.72-67.52,127.55-2.08,1.42-4.89-.19-4.73-2.69.57-9.41.75-17.75.26-26.32-.16-2.82.95-5.57,3.01-7.5,24.29-22.8,39.49-55.17,39.49-91.03,0-70.51-58.75-127.56-129.88-124.8-65.45,2.53-118.23,56-119.96,121.45-.98,37.19,14.4,70.88,39.45,94.39ZM602.93,498.38c0,29.62-24.02,53.64-53.65,53.64s-53.65-24.01-53.65-53.64,24.02-53.64,53.65-53.64,53.65,24.01,53.65,53.64ZM625.57,734.66c-2.2.77-4.43-1.05-4.09-3.36,1.19-7.88,2.31-15.81,3.34-23.6.36-2.75,2.11-5.13,4.65-6.25,71.05-31.02,120.83-101.94,120.83-184.27,0-111.37-91.08-201.87-202.69-200.97-109.18.88-198.32,89.85-199.37,198.99-.8,83.16,49.2,154.96,120.81,186.23,2.55,1.11,4.3,3.49,4.67,6.24,1.03,7.79,2.15,15.72,3.34,23.61.35,2.31-1.89,4.13-4.09,3.36-90.6-31.86-155.48-118.77-154.22-220.38,1.56-125.43,104.37-227.2,229.85-227.55,127.42-.36,231.2,103.16,231.2,230.46,0,100.36-64.5,185.92-154.24,217.47Z"/>
</svg>