<?xml version="1.0" encoding="UTF-8"?>
<svg id="Layer_1" data-name="Layer 1" xmlns="http://www.w3.org/2000/svg" viewBox="0 0 1080 1080">
  <defs>
    <style>
      .cls-1 {
        fill: #fff;
        stroke-width: 0px;
      }
    </style>
  </defs>
  <path class="cls-1" d="M842.59,827.35l-236.41-343.46-26.73-38.84-169.11-245.69-14.02-20.36h-207.81l50.68,73.65,224.86,326.71,26.73,38.8,180.67,262.5,14.02,20.34h207.81l-50.68-73.65ZM710.17,854l-187.7-272.72-26.73-38.82-217.81-316.45h93.69l176.14,255.92,26.73,38.82,229.36,333.25h-93.69Z"/>
  <polygon class="cls-1" points="495.74 542.46 522.47 581.28 490.78 618.16 247.66 901 187.71 901 464.05 579.36 495.74 542.46"/>
  <polygon class="cls-1" points="868.25 179 606.18 483.89 574.49 520.75 547.76 481.93 579.45 445.05 756.98 238.42 808.3 179 868.25 179"/>
</svg>