<?xml version="1.0" encoding="UTF-8"?>
<svg id="Layer_1" data-name="Layer 1" xmlns="http://www.w3.org/2000/svg" viewBox="0 0 1080 1080">
  <defs>
    <style>
      .cls-1 {
        fill: #fff;
      }
    </style>
  </defs>
  <path class="cls-1" d="M389.55,180.98c-38.46,1.82-64.73,7.98-87.68,16.97-23.76,9.26-43.91,21.68-63.94,41.8-20.06,20.13-32.38,40.31-41.58,64.1-8.9,23.01-14.93,49.29-16.63,87.78-1.69,38.55-2.07,50.85-1.88,149.01.19,98.14.62,110.46,2.46,149.03,1.84,38.45,7.98,64.71,16.97,87.67,9.28,23.76,21.68,43.89,41.81,63.95,20.12,20.05,40.31,32.36,64.11,41.56,22.99,8.89,49.28,14.94,87.75,16.63,38.55,1.7,50.86,2.07,148.99,1.89,98.18-.19,110.49-.62,149.04-2.45,38.46-1.84,64.71-8,87.68-16.97,23.76-9.3,43.91-21.68,63.94-41.81,20.04-20.12,32.36-40.31,41.55-64.11,8.9-22.99,14.96-49.28,16.63-87.73,1.69-38.58,2.09-50.9,1.9-149.04-.19-98.16-.63-110.45-2.46-148.99-1.83-38.48-7.99-64.73-16.97-87.71-9.29-23.76-21.68-43.88-41.8-63.95-20.12-20.04-40.31-32.38-64.11-41.55-23-8.9-49.28-14.97-87.75-16.63-38.55-1.71-50.86-2.08-149.03-1.9-98.14.19-110.45.61-149,2.46M393.76,834.41c-35.24-1.53-54.38-7.39-67.13-12.3-16.89-6.54-28.94-14.37-41.62-26.96-12.66-12.64-20.52-24.65-27.11-41.51-4.95-12.75-10.92-31.87-12.57-67.11-1.79-38.1-2.2-49.53-2.38-146.04-.19-96.49.16-107.92,1.83-146.06,1.51-35.22,7.4-54.38,12.3-67.12,6.53-16.91,14.35-28.94,26.96-41.62,12.64-12.68,24.65-20.52,41.52-27.11,12.74-4.98,31.86-10.89,67.08-12.57,38.12-1.8,49.54-2.19,146.03-2.38,96.51-.19,107.94.15,146.08,1.83,35.22,1.53,54.38,7.37,67.11,12.3,16.9,6.53,28.95,14.32,41.62,26.96,12.67,12.64,20.53,24.63,27.12,41.53,4.98,12.71,10.89,31.84,12.55,67.06,1.81,38.12,2.23,49.55,2.4,146.04.19,96.52-.16,107.95-1.84,146.06-1.53,35.24-7.38,54.39-12.3,67.15-6.53,16.88-14.35,28.93-26.97,41.61-12.62,12.64-24.64,20.52-41.52,27.11-12.72,4.97-31.85,10.89-67.06,12.57-38.12,1.79-49.54,2.2-146.06,2.38-96.49.19-107.91-.18-146.04-1.83M688.44,346.72c.05,23.94,19.51,43.32,43.45,43.27,23.95-.05,43.33-19.5,43.3-43.44-.05-23.94-19.51-43.33-43.46-43.29-23.95.05-43.33,19.51-43.29,43.45M353.65,540.29c.2,102.51,83.46,185.43,185.94,185.23,102.5-.2,185.46-83.43,185.26-185.94-.2-102.48-83.47-185.44-185.98-185.24-102.49.2-185.43,83.47-185.23,185.96M418.76,540.16c-.12-66.53,53.73-120.58,120.25-120.7,66.53-.13,120.59,53.7,120.72,120.24.13,66.55-53.72,120.58-120.26,120.71-66.52.13-120.58-53.71-120.71-120.25"/>
</svg>