<?xml version="1.0" encoding="UTF-8"?>
<svg id="Layer_1" data-name="Layer 1" xmlns="http://www.w3.org/2000/svg" viewBox="0 0 1080 1080">
  <defs>
    <style>
      .cls-1 {
        fill: #fff;
        stroke-width: 0px;
      }
    </style>
  </defs>
  <path class="cls-1" d="M904.15,356.82c-8.73-32.67-34.46-58.4-67.13-67.13-59.21-15.87-296.65-15.87-296.65-15.87,0,0-237.43,0-296.65,15.87-32.67,8.73-58.4,34.46-67.13,67.13-15.87,59.21-15.87,182.75-15.87,182.75,0,0,0,123.54,15.87,182.75,8.73,32.67,34.46,58.4,67.13,67.13,59.21,15.87,296.65,15.87,296.65,15.87,0,0,237.43,0,296.65-15.87,32.67-8.73,58.4-34.46,67.13-67.13,15.87-59.21,15.87-182.75,15.87-182.75,0,0,0-123.54-15.87-182.75ZM464.44,653.47v-227.78l197.26,113.9-197.26,113.89Z"/>
</svg>